<svg width="32" height="32" viewBox="0 0 32 32" fill="none" xmlns="http://www.w3.org/2000/svg">
<path d="M25.8777 25.9211L24.8912 24.9277L24.8886 24.9303L25.8777 25.9211ZM16 30L16.0018 28.6H16V30ZM2.00001 16H3.40001L3.40001 15.9981L2.00001 16ZM5.85001 6.35751L6.8637 7.32314L6.86619 7.32051L5.85001 6.35751ZM16 2.00001L15.9983 3.40001L16.0018 3.40001L16 2.00001ZM25.8777 6.07891L24.8895 7.07064L24.8912 7.07231L25.8777 6.07891ZM17.2789 17.444L16.7162 16.1621L16.7161 16.1621L17.2789 17.444ZM4.98139 25.0665C4.51951 25.6865 4.64776 26.5636 5.26784 27.0255C5.88792 27.4874 6.76502 27.3592 7.2269 26.7391L4.98139 25.0665ZM11.6996 1.98924C11.1314 1.46482 10.2457 1.50028 9.72124 2.06845C9.19682 2.63662 9.23228 3.52234 9.80045 4.04676L11.6996 1.98924ZM19.5 15.3002L20.8223 14.8402L20.8223 14.8402L19.5 15.3002ZM20.9767 28.7946C21.1479 29.5486 21.8979 30.0211 22.6519 29.8499C23.4059 29.6788 23.8784 28.9288 23.7073 28.1748L20.9767 28.7946ZM2.19223 12.8526C1.42044 12.806 0.757018 13.3939 0.710441 14.1657C0.663863 14.9375 1.25177 15.601 2.02356 15.6475L2.19223 12.8526ZM26.7936 7.16127C27.3843 6.66245 27.4589 5.77915 26.9601 5.18838C26.4612 4.59761 25.5779 4.52308 24.9872 5.0219L26.7936 7.16127ZM4.34389 20.7945C4.04867 20.0799 3.23004 19.7399 2.51542 20.0351C1.8008 20.3304 1.46081 21.149 1.75603 21.8636L4.34389 20.7945ZM8.68364 29.554C9.36365 29.922 10.2132 29.6691 10.5812 28.9891C10.9492 28.3091 10.6963 27.4595 10.0163 27.0915L8.68364 29.554ZM22.1611 1.88209C21.4527 1.57216 20.6273 1.89515 20.3173 2.60351C20.0074 3.31187 20.3304 4.13737 21.0387 4.4473L22.1611 1.88209ZM27.8066 20.4094C27.5358 21.1336 27.9033 21.9403 28.6275 22.2112C29.3517 22.482 30.1583 22.1145 30.4292 21.3903L27.8066 20.4094ZM28.6 16.0018C28.6021 17.6608 28.2755 19.3039 27.6389 20.8359L30.2246 21.9103C31.0031 20.0366 31.4026 18.0272 31.4 15.9982L28.6 16.0018ZM27.6389 20.8359C27.0023 22.368 26.0684 23.7587 24.8912 24.9277L26.8642 26.9145C28.3039 25.4848 29.446 23.784 30.2246 21.9103L27.6389 20.8359ZM24.8886 24.9303C23.721 26.0958 22.3352 27.0198 20.8104 27.6495L21.8791 30.2375C23.744 29.4674 25.4388 28.3373 26.8668 26.9119L24.8886 24.9303ZM20.8104 27.6495C19.2855 28.2791 17.6516 28.6021 16.0018 28.6L15.9982 31.4C18.0158 31.4026 20.0142 31.0076 21.8791 30.2375L20.8104 27.6495ZM16 28.6C9.04101 28.6 3.40001 22.959 3.40001 16H0.600014C0.600014 24.5054 7.49461 31.4 16 31.4V28.6ZM3.40001 15.9981C3.39561 12.7685 4.63615 9.66154 6.86369 7.32314L4.83633 5.39188C2.11189 8.25189 0.594629 12.0519 0.600015 16.0019L3.40001 15.9981ZM6.86619 7.32051C8.04161 6.08018 9.45776 5.09275 11.028 4.41864L9.92341 1.84572C8.00314 2.67011 6.27128 3.87767 4.83383 5.39451L6.86619 7.32051ZM11.028 4.41864C12.5982 3.74452 14.2895 3.39791 15.9983 3.40001L16.0017 0.600014C13.912 0.597447 11.8437 1.02133 9.92341 1.84572L11.028 4.41864ZM16.0018 3.40001C17.6516 3.39787 19.2855 3.72087 20.8104 4.35054L21.8791 1.76252C20.0142 0.992428 18.0158 0.597401 15.9982 0.600014L16.0018 3.40001ZM20.8104 4.35054C22.3352 4.98021 23.721 5.90421 24.8886 7.06973L26.8668 5.08809C25.4388 3.66266 23.744 2.53261 21.8791 1.76252L20.8104 4.35054ZM24.8912 7.07231C26.0684 8.24132 27.0023 9.63204 27.6389 11.1641L30.2246 10.0897C29.446 8.21604 28.3039 6.5152 26.8642 5.08551L24.8912 7.07231ZM27.6389 11.1641C28.2755 12.6961 28.6021 14.3392 28.6 15.9982L31.4 16.0018C31.4026 13.9728 31.0031 11.9634 30.2246 10.0897L27.6389 11.1641ZM30 14.6C28.2178 14.6 22.1126 13.793 16.7162 16.1621L17.8417 18.7259C22.5323 16.6667 27.6969 17.4 30 17.4V14.6ZM16.7161 16.1621C11.0052 18.6699 6.84867 22.5596 4.98139 25.0665L7.2269 26.7391C8.81762 24.6035 12.5949 21.0299 17.8418 18.7258L16.7161 16.1621ZM9.80045 4.04676C11.9534 6.03392 16.5178 10.9888 18.1777 15.7602L20.8223 14.8402C18.9262 9.39016 13.9286 4.04667 11.6996 1.98924L9.80045 4.04676ZM18.1777 15.7601C19.0307 18.2125 19.6245 20.9771 20.0576 23.3862C20.2734 24.587 20.4472 25.6861 20.5941 26.609C20.7372 27.5076 20.8625 28.2916 20.9767 28.7946L23.7073 28.1748C23.6184 27.7835 23.5093 27.1113 23.3593 26.1687C23.2131 25.2505 23.035 24.1237 22.8134 22.8908C22.3715 20.4327 21.7472 17.4993 20.8223 14.8402L18.1777 15.7601ZM2.02356 15.6475C3.38617 15.7298 5.86093 15.8077 8.57922 15.619C11.2722 15.432 14.3274 14.9762 16.783 13.9276L15.6834 11.3526C13.6589 12.2171 10.9738 12.646 8.38532 12.8257C5.82211 13.0036 3.47422 12.93 2.19223 12.8526L2.02356 15.6475ZM16.783 13.9276C21.4987 11.9139 25.5288 8.22921 26.7936 7.16127L24.9872 5.0219C23.6074 6.18696 19.9277 9.5401 15.6834 11.3526L16.783 13.9276ZM1.75603 21.8636C3.11254 25.1472 5.55906 27.8631 8.68364 29.554L10.0163 27.0915C7.45784 25.707 5.45462 23.4832 4.34389 20.7945L1.75603 21.8636ZM21.0387 4.4473C22.4739 5.07523 23.7798 5.96489 24.8895 7.07064L26.8659 5.08718C25.5101 3.73626 23.9146 2.64931 22.1611 1.88209L21.0387 4.4473ZM28.6 16C28.6 17.5542 28.3193 19.0387 27.8066 20.4094L30.4292 21.3903C31.0575 19.7105 31.4 17.894 31.4 16H28.6Z" fill="#E3E4E6"/>
</svg>
